<svg width="18" height="17" viewBox="0 0 18 17" fill="none" xmlns="http://www.w3.org/2000/svg">
<path d="M10.3473 3.93371C10.0122 3.87181 9.70448 4.08564 9.64069 4.41272C9.5769 4.7398 9.7914 5.05914 10.1174 5.12315C11.0988 5.31447 11.8565 6.07414 12.0486 7.05889V7.0596C12.1033 7.34306 12.3528 7.54916 12.6402 7.54916C12.6788 7.54916 12.7173 7.54564 12.7566 7.53861C13.0826 7.47319 13.2971 7.15455 13.2333 6.82677C12.9466 5.35597 11.8145 4.21999 10.3473 3.93371Z" fill="#D0D2DA"/>
<path d="M10.3035 1.4828C10.1465 1.46029 9.98873 1.50671 9.86325 1.60659C9.73427 1.70788 9.65366 1.85419 9.63613 2.01808C9.59898 2.34938 9.83802 2.64903 10.1689 2.68631C12.4506 2.94094 14.2241 4.71842 14.4807 7.00726C14.515 7.31394 14.7723 7.54536 15.0793 7.54536C15.1025 7.54536 15.1249 7.54395 15.148 7.54114C15.3086 7.52356 15.4516 7.44407 15.5525 7.31746C15.6528 7.19085 15.6983 7.03329 15.6801 6.87221C15.3604 4.01643 13.1502 1.80003 10.3035 1.4828Z" fill="#D0D2DA"/>
<path fill-rule="evenodd" clip-rule="evenodd" d="M7.96354 9.20044C10.7714 12.0075 11.4083 8.76005 13.1961 10.5466C14.9196 12.2696 15.9102 12.6148 13.7265 14.7979C13.453 15.0177 11.7151 17.6624 5.60756 11.5565C-0.500752 5.4499 2.14236 3.71023 2.36224 3.43678C4.55123 1.24764 4.89049 2.24401 6.61403 3.96706C8.40179 5.75433 5.15571 6.39339 7.96354 9.20044Z" fill="#D0D2DA"/>
</svg>
