<svg width="18" height="17" viewBox="0 0 18 17" fill="none" xmlns="http://www.w3.org/2000/svg">
<path d="M9.20916 10.9581C9.11653 10.9586 9.0247 10.9408 8.93894 10.9058C8.85318 10.8708 8.77518 10.8192 8.70941 10.7539L5.89389 7.93842C5.82827 7.87279 5.77621 7.79487 5.74069 7.70913C5.70517 7.62338 5.68689 7.53147 5.68689 7.43866C5.68689 7.34585 5.70517 7.25394 5.74069 7.1682C5.77621 7.08245 5.82827 7.00454 5.89389 6.93891C5.95952 6.87328 6.03744 6.82122 6.12318 6.7857C6.20893 6.75018 6.30084 6.7319 6.39365 6.7319C6.48646 6.7319 6.57837 6.75018 6.66411 6.7857C6.74986 6.82122 6.82777 6.87328 6.8934 6.93891L9.20916 9.26875L11.532 7.03041C11.5967 6.95841 11.6756 6.90055 11.7638 6.86044C11.8519 6.82032 11.9474 6.79883 12.0442 6.7973C12.141 6.79576 12.2371 6.81422 12.3265 6.85152C12.4158 6.88882 12.4965 6.94416 12.5635 7.01407C12.6305 7.08398 12.6824 7.16697 12.7158 7.25783C12.7493 7.3487 12.7637 7.44549 12.758 7.54216C12.7524 7.63883 12.7268 7.73329 12.683 7.81964C12.6392 7.90599 12.578 7.98237 12.5033 8.044L9.6878 10.761C9.55908 10.8851 9.38795 10.9555 9.20916 10.9581Z" fill="#15192C"/>
</svg>
