<svg width="18" height="18" viewBox="0 0 18 18" fill="none" xmlns="http://www.w3.org/2000/svg">
<path fill-rule="evenodd" clip-rule="evenodd" d="M6.28803 1.71671H12.1872C14.3615 1.71671 15.5722 2.96961 15.5722 5.11644V12.3875C15.5722 14.5695 14.3615 15.7943 12.1872 15.7943H6.28803C4.14824 15.7943 2.90237 14.5695 2.90237 12.3875V5.11644C2.90237 2.96961 4.14824 1.71671 6.28803 1.71671ZM6.47807 4.99677V4.98973H8.58196C8.88533 4.98973 9.13169 5.23609 9.13169 5.53805C9.13169 5.84847 8.88533 6.09482 8.58196 6.09482H6.47807C6.1747 6.09482 5.92904 5.84847 5.92904 5.5458C5.92904 5.24313 6.1747 4.99677 6.47807 4.99677ZM6.47807 9.27636H11.9965C12.2991 9.27636 12.5455 9.03 12.5455 8.72733C12.5455 8.42467 12.2991 8.1776 11.9965 8.1776H6.47807C6.1747 8.1776 5.92904 8.42467 5.92904 8.72733C5.92904 9.03 6.1747 9.27636 6.47807 9.27636ZM6.47807 12.4931H11.9965C12.2773 12.4649 12.4892 12.2249 12.4892 11.9441C12.4892 11.6555 12.2773 11.4161 11.9965 11.388H6.47807C6.26691 11.3669 6.06278 11.4654 5.95016 11.6484C5.83754 11.8244 5.83754 12.0567 5.95016 12.2397C6.06278 12.4157 6.26691 12.5212 6.47807 12.4931Z" fill="#551FFF"/>
</svg>
