<svg width="655" height="318" viewBox="0 0 655 318" fill="none" xmlns="http://www.w3.org/2000/svg">
<rect x="0.915527" y="0.949524" width="653.199" height="316.745" rx="16.8931" fill="white"/>
<line x1="47.0195" y1="72.7451" x2="47.0195" y2="271.943" stroke="#ECECEE" stroke-width="0.703878"/>
<line x1="626.663" y1="272.295" x2="46.6673" y2="272.295" stroke="#ECECEE" stroke-width="0.703878"/>
<path d="M101.833 225.109C82.1765 231.349 48.0753 216.898 48.0753 216.898V290.243H574.765V110.857C552.656 104.173 522.812 53.3637 509.439 73.0105C468.61 132.993 419.977 67.5474 374.704 86.578C328.514 105.995 317.589 140.567 267.869 142.633C244.847 143.59 248.346 207.019 225.34 208.329C201.849 209.666 180.214 155.656 157.972 163.699C134.195 172.296 125.905 217.468 101.833 225.109Z" fill="url(#paint0_linear_101_181)"/>
<path d="M48.0753 212.483C48.0753 212.483 82.1643 226.504 101.814 220.45C125.877 213.036 134.164 169.208 157.933 160.867C180.167 153.063 201.794 205.466 225.276 204.169C248.274 202.898 244.777 141.356 267.791 140.428C317.493 138.423 328.414 104.88 374.588 86.0408C419.844 67.5764 468.46 131.075 509.274 72.8769C522.642 53.8147 552.476 103.112 574.576 109.597" stroke="#7549FF" stroke-width="1.7597" stroke-linecap="round" stroke-linejoin="round"/>
<line x1="585.134" y1="267.719" x2="585.134" y2="276.166" stroke="#ECECEE" stroke-width="1.40776" stroke-linecap="round" stroke-linejoin="round"/>
<line x1="482.368" y1="267.719" x2="482.368" y2="276.166" stroke="#ECECEE" stroke-width="1.40776" stroke-linecap="round" stroke-linejoin="round"/>
<line x1="379.602" y1="267.719" x2="379.602" y2="276.166" stroke="#ECECEE" stroke-width="1.40776" stroke-linecap="round" stroke-linejoin="round"/>
<line x1="276.836" y1="267.719" x2="276.836" y2="276.166" stroke="#ECECEE" stroke-width="1.40776" stroke-linecap="round" stroke-linejoin="round"/>
<line x1="174.069" y1="267.719" x2="174.069" y2="276.166" stroke="#ECECEE" stroke-width="1.40776" stroke-linecap="round" stroke-linejoin="round"/>
<line x1="71.3033" y1="267.719" x2="71.3033" y2="276.166" stroke="#ECECEE" stroke-width="1.40776" stroke-linecap="round" stroke-linejoin="round"/>
<line x1="45.2598" y1="248.715" x2="50.8908" y2="248.715" stroke="#ECECEE" stroke-width="1.40776" stroke-linecap="round" stroke-linejoin="round"/>
<line x1="45.2598" y1="210.001" x2="50.8908" y2="210.001" stroke="#ECECEE" stroke-width="1.40776" stroke-linecap="round" stroke-linejoin="round"/>
<line x1="45.2598" y1="171.288" x2="50.8908" y2="171.288" stroke="#ECECEE" stroke-width="1.40776" stroke-linecap="round" stroke-linejoin="round"/>
<line x1="45.2598" y1="132.575" x2="50.8908" y2="132.575" stroke="#ECECEE" stroke-width="1.40776" stroke-linecap="round" stroke-linejoin="round"/>
<line x1="45.2598" y1="93.1575" x2="50.8908" y2="93.1575" stroke="#ECECEE" stroke-width="1.40776" stroke-linecap="round" stroke-linejoin="round"/>
<path d="M55.4423 289.501V284.556L54.2834 285.426L53.937 284.898L55.5661 283.702H56.1517V289.501H55.4423ZM59.5831 289.554C59.2669 289.554 58.9755 289.49 58.7088 289.361C58.4448 289.229 58.2152 289.04 58.02 288.796C57.8276 288.548 57.6763 288.237 57.5664 287.863C57.4591 287.49 57.4055 287.07 57.4055 286.606C57.4055 286.177 57.455 285.781 57.554 285.418C57.653 285.055 57.7932 284.743 57.9747 284.482C58.1561 284.22 58.3843 284.017 58.6593 283.871C58.937 283.723 59.2449 283.648 59.5831 283.648C59.8993 283.648 60.1894 283.714 60.4534 283.846C60.7201 283.976 60.9496 284.164 61.1421 284.411C61.3373 284.656 61.4886 284.967 61.5958 285.344C61.7058 285.717 61.7608 286.138 61.7608 286.606C61.7608 287.034 61.7113 287.429 61.6123 287.789C61.516 288.149 61.3758 288.46 61.1916 288.721C61.0101 288.983 60.7819 289.187 60.507 289.336C60.232 289.482 59.9241 289.554 59.5831 289.554ZM59.5873 288.895C59.8925 288.895 60.155 288.8 60.375 288.61C60.595 288.42 60.7613 288.155 60.874 287.814C60.9868 287.47 61.0431 287.067 61.0431 286.606C61.0431 285.88 60.9098 285.316 60.6431 284.915C60.3764 284.51 60.0244 284.308 59.5873 284.308C59.1281 284.308 58.7693 284.515 58.5108 284.927C58.2524 285.339 58.1231 285.899 58.1231 286.606C58.1231 287.323 58.2565 287.884 58.5232 288.288C58.7926 288.692 59.1473 288.895 59.5873 288.895ZM63.2166 285.801C63.1259 285.801 63.042 285.781 62.965 285.739C62.8908 285.695 62.8317 285.638 62.7877 285.566C62.7465 285.492 62.7258 285.411 62.7258 285.323C62.7258 285.188 62.7726 285.074 62.8661 284.981C62.9623 284.887 63.0792 284.84 63.2166 284.84C63.3514 284.84 63.4655 284.887 63.5589 284.981C63.6552 285.074 63.7033 285.188 63.7033 285.323C63.7033 285.455 63.6552 285.568 63.5589 285.661C63.4655 285.755 63.3514 285.801 63.2166 285.801ZM63.2166 289.051C63.0792 289.051 62.9623 289.005 62.8661 288.911C62.7726 288.818 62.7258 288.705 62.7258 288.573C62.7258 288.438 62.7726 288.324 62.8661 288.231C62.9623 288.137 63.0792 288.09 63.2166 288.09C63.3514 288.09 63.4655 288.137 63.5589 288.231C63.6552 288.324 63.7033 288.438 63.7033 288.573C63.7033 288.705 63.6552 288.818 63.5589 288.911C63.4655 289.005 63.3514 289.051 63.2166 289.051ZM67.3409 286.49C67.6489 286.614 67.8908 286.802 68.0668 287.055C68.2428 287.308 68.3307 287.605 68.3307 287.946C68.3307 288.259 68.2483 288.54 68.0833 288.787C67.9211 289.032 67.697 289.222 67.411 289.356C67.1278 289.488 66.8089 289.554 66.4542 289.554C65.9758 289.554 65.562 289.449 65.2128 289.237C64.8663 289.025 64.6189 288.746 64.4704 288.4L65.0849 288.119C65.1564 288.279 65.2513 288.415 65.3695 288.527C65.4877 288.64 65.6348 288.728 65.8108 288.791C65.9895 288.855 66.1902 288.886 66.4129 288.886C66.6329 288.886 66.8336 288.844 67.0151 288.758C67.1966 288.673 67.3409 288.551 67.4481 288.391C67.5554 288.229 67.609 288.045 67.609 287.839C67.609 287.698 67.5815 287.567 67.5265 287.443C67.4743 287.319 67.3973 287.209 67.2955 287.113C67.1938 287.017 67.0605 286.941 66.8955 286.886C66.7305 286.831 66.5436 286.804 66.3346 286.804H65.852V286.185H66.4171C66.5958 286.185 66.7539 286.16 66.8914 286.111C67.0288 286.061 67.1374 285.994 67.2172 285.909C67.2997 285.821 67.3615 285.723 67.4028 285.616C67.444 285.506 67.4646 285.388 67.4646 285.261C67.4646 284.981 67.3602 284.752 67.1512 284.576C66.945 284.4 66.6879 284.312 66.38 284.312C65.8823 284.312 65.5029 284.502 65.2417 284.882L64.6684 284.568C64.8223 284.288 65.0478 284.065 65.3448 283.9C65.6417 283.732 65.9909 283.648 66.3923 283.648C66.725 283.648 67.0247 283.708 67.2914 283.826C67.5609 283.941 67.7753 284.116 67.9348 284.35C68.097 284.581 68.1781 284.853 68.1781 285.166C68.1781 285.455 68.1039 285.715 67.9554 285.946C67.8097 286.177 67.6049 286.355 67.3409 286.482V286.49ZM71.3951 289.554C71.0789 289.554 70.7874 289.49 70.5207 289.361C70.2568 289.229 70.0272 289.04 69.832 288.796C69.6395 288.548 69.4883 288.237 69.3783 287.863C69.2711 287.49 69.2175 287.07 69.2175 286.606C69.2175 286.177 69.267 285.781 69.3659 285.418C69.4649 285.055 69.6051 284.743 69.7866 284.482C69.9681 284.22 70.1963 284.017 70.4712 283.871C70.7489 283.723 71.0569 283.648 71.3951 283.648C71.7113 283.648 72.0014 283.714 72.2653 283.846C72.532 283.976 72.7616 284.164 72.9541 284.411C73.1493 284.656 73.3005 284.967 73.4077 285.344C73.5177 285.717 73.5727 286.138 73.5727 286.606C73.5727 287.034 73.5232 287.429 73.4242 287.789C73.328 288.149 73.1878 288.46 73.0036 288.721C72.8221 288.983 72.5939 289.187 72.3189 289.336C72.044 289.482 71.736 289.554 71.3951 289.554ZM71.3992 288.895C71.7044 288.895 71.967 288.8 72.187 288.61C72.4069 288.42 72.5733 288.155 72.686 287.814C72.7987 287.47 72.8551 287.067 72.8551 286.606C72.8551 285.88 72.7217 285.316 72.455 284.915C72.1883 284.51 71.8364 284.308 71.3992 284.308C70.94 284.308 70.5812 284.515 70.3228 284.927C70.0643 285.339 69.9351 285.899 69.9351 286.606C69.9351 287.323 70.0684 287.884 70.3351 288.288C70.6046 288.692 70.9593 288.895 71.3992 288.895ZM81.1284 289.501L80.5922 288.041H77.9156L77.3836 289.501H76.6123L78.8807 283.5H79.6189L81.9038 289.501H81.1284ZM78.1507 287.397H80.3572L79.2601 284.399H79.2436L78.1507 287.397ZM88.0572 283.5H88.7955V289.501H88.0613V284.902H88.049L86.094 288.292H85.595L83.6401 284.902H83.6277V289.501H82.8936V283.5H83.6318L85.8342 287.381H85.859L88.0572 283.5Z" fill="#92959E"/>
<path d="M34.2768 250.787V245.842L33.1179 246.713L32.7714 246.185L34.4005 244.989H34.9862V250.787H34.2768ZM37.9763 248.903H37.9639L37.1019 249.86V250.787H36.4214V244.568H37.1019V248.919H37.1143L39.1393 246.676H39.9683L38.4341 248.379L39.9766 250.787H39.1971L37.9763 248.903Z" fill="#92959E"/>
<path d="M32.183 169.678C32.3535 169.678 32.5184 169.697 32.6779 169.736C32.8374 169.771 32.9858 169.825 33.1233 169.896C33.2635 169.968 33.39 170.059 33.5028 170.169C33.6182 170.276 33.7158 170.397 33.7956 170.532C33.8781 170.666 33.9413 170.819 33.9853 170.989C34.032 171.16 34.0554 171.34 34.0554 171.53C34.0554 171.895 33.966 172.223 33.7873 172.511C33.6086 172.8 33.3653 173.024 33.0573 173.184C32.7521 173.34 32.4126 173.419 32.0386 173.419C31.6372 173.419 31.266 173.333 30.9251 173.163C30.5841 172.99 30.3133 172.752 30.1126 172.449L30.6405 172.045C30.7752 172.262 30.9594 172.436 31.1932 172.565C31.4296 172.691 31.6936 172.755 31.985 172.755C32.2325 172.755 32.4593 172.702 32.6655 172.598C32.8717 172.491 33.0353 172.342 33.1563 172.152C33.2773 171.963 33.3378 171.752 33.3378 171.521C33.3378 171.332 33.3007 171.158 33.2264 171.002C33.1522 170.845 33.0532 170.717 32.9295 170.618C32.8057 170.516 32.6628 170.439 32.5006 170.387C32.3411 170.332 32.172 170.305 31.9933 170.305C31.5616 170.305 31.2206 170.411 30.9704 170.622L30.558 170.494L30.7271 167.562H33.7915V168.214H31.3952L31.3045 169.843C31.6262 169.733 31.919 169.678 32.183 169.678ZM36.6867 171.476H36.6743L35.8124 172.433V173.361H35.1318V167.141H35.8124V171.493H35.8247L37.8498 169.249H38.6787L37.1445 170.952L38.687 173.361H37.9075L36.6867 171.476Z" fill="#92959E"/>
<path d="M32.1789 90.0819C32.4648 90.0819 32.7315 90.1369 32.979 90.2468C33.2292 90.3541 33.445 90.5053 33.6265 90.7005C33.8107 90.8957 33.9551 91.1363 34.0595 91.4223C34.164 91.7082 34.2163 92.0203 34.2163 92.3585C34.2163 92.7681 34.1585 93.16 34.043 93.5339C33.9303 93.9078 33.7763 94.2391 33.5811 94.5278C33.3886 94.8138 33.1632 95.0695 32.9047 95.295C32.6463 95.5204 32.3713 95.7033 32.0799 95.8435C31.7912 95.9837 31.4942 96.0813 31.189 96.1363L30.9787 95.53C31.2509 95.4613 31.508 95.3665 31.7499 95.2455C31.9946 95.1245 32.227 94.9746 32.4469 94.7959C32.6669 94.6172 32.8594 94.4 33.0243 94.1443C33.1893 93.8886 33.3144 93.6054 33.3996 93.2947L33.3873 93.2864C33.2635 93.3937 33.1261 93.4858 32.9748 93.5628C32.8236 93.6397 32.6587 93.6989 32.4799 93.7401C32.304 93.7813 32.1225 93.802 31.9355 93.802C31.6028 93.802 31.3031 93.7305 31.0364 93.5875C30.7725 93.4418 30.5621 93.2301 30.4054 92.9524C30.2514 92.6719 30.1745 92.3475 30.1745 91.979C30.1745 91.6243 30.2611 91.3027 30.4343 91.014C30.6103 90.7225 30.8508 90.4943 31.156 90.3293C31.4612 90.1643 31.8022 90.0819 32.1789 90.0819ZM32.0922 93.1503C32.3809 93.1503 32.6532 93.0775 32.9089 92.9317C33.1673 92.7833 33.3722 92.5881 33.5234 92.3461V92.3007C33.5234 91.9928 33.4656 91.7206 33.3502 91.4841C33.2347 91.2449 33.0766 91.0621 32.8759 90.9356C32.6751 90.8064 32.4469 90.7417 32.1912 90.7417C31.9988 90.7417 31.82 90.7747 31.6551 90.8407C31.4929 90.9067 31.3554 90.9961 31.2426 91.1088C31.1327 91.2215 31.0461 91.3535 30.9828 91.5047C30.9196 91.656 30.888 91.8154 30.888 91.9832C30.888 92.3296 30.9979 92.6114 31.2179 92.8286C31.4406 93.0431 31.7321 93.1503 32.0922 93.1503ZM36.8764 94.0494H36.864L36.0021 95.0063V95.9342H35.3216V89.7148H36.0021V94.0659H36.0144L38.0395 91.8223H38.8685L37.3342 93.5256L38.8767 95.9342H38.0972L36.8764 94.0494Z" fill="#92959E"/>
<path d="M32.8841 209.063C33.1921 209.187 33.434 209.376 33.61 209.628C33.786 209.881 33.8739 210.178 33.8739 210.519C33.8739 210.833 33.7915 211.113 33.6265 211.361C33.4643 211.605 33.2402 211.795 32.9542 211.93C32.671 212.062 32.3521 212.128 31.9974 212.128C31.519 212.128 31.1052 212.022 30.756 211.81C30.4095 211.599 30.1621 211.319 30.0136 210.973L30.6281 210.693C30.6996 210.852 30.7945 210.988 30.9127 211.101C31.0309 211.214 31.178 211.302 31.354 211.365C31.5327 211.428 31.7334 211.46 31.9561 211.46C32.1761 211.46 32.3768 211.417 32.5583 211.332C32.7398 211.247 32.8841 211.124 32.9913 210.965C33.0986 210.803 33.1522 210.618 33.1522 210.412C33.1522 210.272 33.1247 210.14 33.0697 210.016C33.0175 209.892 32.9405 209.782 32.8387 209.686C32.737 209.59 32.6037 209.514 32.4387 209.459C32.2737 209.404 32.0867 209.377 31.8778 209.377H31.3952V208.758H31.9603C32.139 208.758 32.2971 208.734 32.4346 208.684C32.572 208.635 32.6806 208.567 32.7604 208.482C32.8429 208.394 32.9047 208.296 32.946 208.189C32.9872 208.079 33.0078 207.961 33.0078 207.834C33.0078 207.554 32.9034 207.326 32.6944 207.15C32.4882 206.974 32.2311 206.886 31.9232 206.886C31.4255 206.886 31.0461 207.076 30.7848 207.455L30.2116 207.142C30.3655 206.861 30.591 206.638 30.888 206.473C31.1849 206.306 31.5341 206.222 31.9355 206.222C32.2682 206.222 32.5679 206.281 32.8346 206.399C33.1041 206.515 33.3185 206.689 33.478 206.923C33.6402 207.154 33.7213 207.426 33.7213 207.74C33.7213 208.028 33.6471 208.288 33.4986 208.519C33.3529 208.75 33.1481 208.929 32.8841 209.055V209.063ZM36.53 210.189H36.5176L35.6556 211.146V212.074H34.9751V205.855H35.6556V210.206H35.668L37.693 207.962H38.522L36.9878 209.666L38.5303 212.074H37.7508L36.53 210.189Z" fill="#92959E"/>
<path d="M30.0054 128.849H33.5935V129.34L31.2963 134.747L30.5869 134.606L32.8057 129.5H30.0054V128.849ZM36.1588 132.763H36.1464L35.2844 133.72V134.648H34.6039V128.428H35.2844V132.779H35.2968L37.3218 130.536H38.1508L36.6166 132.239L38.1591 134.648H37.3796L36.1588 132.763Z" fill="#92959E"/>
<path d="M260.373 289.501V284.556L259.214 285.426L258.867 284.898L260.496 283.702H261.082V289.501H260.373ZM263.276 288.849H265.85V289.501H262.2L262.192 289.01L264.175 286.985C264.316 286.839 264.432 286.711 264.526 286.601C264.619 286.491 264.71 286.37 264.798 286.238C264.886 286.104 264.952 285.97 264.996 285.838C265.04 285.704 265.062 285.566 265.062 285.426C265.062 285.104 264.959 284.839 264.753 284.63C264.549 284.418 264.288 284.312 263.969 284.312C263.414 284.312 262.999 284.578 262.724 285.108L262.2 284.75C262.313 284.53 262.449 284.34 262.608 284.18C262.77 284.018 262.971 283.889 263.21 283.793C263.452 283.697 263.72 283.648 264.015 283.648C264.245 283.648 264.467 283.688 264.679 283.768C264.89 283.845 265.077 283.955 265.239 284.098C265.402 284.241 265.531 284.421 265.627 284.638C265.726 284.855 265.776 285.095 265.776 285.356C265.776 285.689 265.699 286.008 265.545 286.313C265.393 286.615 265.14 286.946 264.786 287.307L263.276 288.837V288.849ZM267.24 285.801C267.149 285.801 267.065 285.781 266.988 285.739C266.914 285.695 266.855 285.638 266.811 285.566C266.77 285.492 266.749 285.411 266.749 285.323C266.749 285.188 266.796 285.074 266.889 284.981C266.985 284.887 267.102 284.84 267.24 284.84C267.374 284.84 267.489 284.887 267.582 284.981C267.678 285.074 267.726 285.188 267.726 285.323C267.726 285.455 267.678 285.568 267.582 285.661C267.489 285.755 267.374 285.801 267.24 285.801ZM267.24 289.051C267.102 289.051 266.985 289.005 266.889 288.911C266.796 288.818 266.749 288.705 266.749 288.573C266.749 288.438 266.796 288.324 266.889 288.231C266.985 288.137 267.102 288.09 267.24 288.09C267.374 288.09 267.489 288.137 267.582 288.231C267.678 288.324 267.726 288.438 267.726 288.573C267.726 288.705 267.678 288.818 267.582 288.911C267.489 289.005 267.374 289.051 267.24 289.051ZM271.364 286.49C271.672 286.614 271.914 286.802 272.09 287.055C272.266 287.308 272.354 287.605 272.354 287.946C272.354 288.259 272.271 288.54 272.106 288.787C271.944 289.032 271.72 289.222 271.434 289.356C271.151 289.488 270.832 289.554 270.477 289.554C269.999 289.554 269.585 289.449 269.236 289.237C268.889 289.025 268.642 288.746 268.493 288.4L269.108 288.119C269.179 288.279 269.274 288.415 269.393 288.527C269.511 288.64 269.658 288.728 269.834 288.791C270.013 288.855 270.213 288.886 270.436 288.886C270.656 288.886 270.857 288.844 271.038 288.758C271.22 288.673 271.364 288.551 271.471 288.391C271.578 288.229 271.632 288.045 271.632 287.839C271.632 287.698 271.605 287.567 271.55 287.443C271.497 287.319 271.42 287.209 271.319 287.113C271.217 287.017 271.084 286.941 270.919 286.886C270.754 286.831 270.567 286.804 270.358 286.804H269.875V286.185H270.44C270.619 286.185 270.777 286.16 270.914 286.111C271.052 286.061 271.161 285.994 271.24 285.909C271.323 285.821 271.385 285.723 271.426 285.616C271.467 285.506 271.488 285.388 271.488 285.261C271.488 284.981 271.383 284.752 271.174 284.576C270.968 284.4 270.711 284.312 270.403 284.312C269.905 284.312 269.526 284.502 269.265 284.882L268.691 284.568C268.845 284.288 269.071 284.065 269.368 283.9C269.665 283.732 270.014 283.648 270.415 283.648C270.748 283.648 271.048 283.708 271.314 283.826C271.584 283.941 271.798 284.116 271.958 284.35C272.12 284.581 272.201 284.853 272.201 285.166C272.201 285.455 272.127 285.715 271.979 285.946C271.833 286.177 271.628 286.355 271.364 286.482V286.49ZM275.418 289.554C275.102 289.554 274.811 289.49 274.544 289.361C274.28 289.229 274.05 289.04 273.855 288.796C273.663 288.548 273.511 288.237 273.401 287.863C273.294 287.49 273.241 287.07 273.241 286.606C273.241 286.177 273.29 285.781 273.389 285.418C273.488 285.055 273.628 284.743 273.81 284.482C273.991 284.22 274.219 284.017 274.494 283.871C274.772 283.723 275.08 283.648 275.418 283.648C275.734 283.648 276.024 283.714 276.288 283.846C276.555 283.976 276.785 284.164 276.977 284.411C277.172 284.656 277.324 284.967 277.431 285.344C277.541 285.717 277.596 286.138 277.596 286.606C277.596 287.034 277.546 287.429 277.447 287.789C277.351 288.149 277.211 288.46 277.027 288.721C276.845 288.983 276.617 289.187 276.342 289.336C276.067 289.482 275.759 289.554 275.418 289.554ZM275.422 288.895C275.727 288.895 275.99 288.8 276.21 288.61C276.43 288.42 276.596 288.155 276.709 287.814C276.822 287.47 276.878 287.067 276.878 286.606C276.878 285.88 276.745 285.316 276.478 284.915C276.211 284.51 275.859 284.308 275.422 284.308C274.963 284.308 274.604 284.515 274.346 284.927C274.087 285.339 273.958 285.899 273.958 286.606C273.958 287.323 274.092 287.884 274.358 288.288C274.628 288.692 274.982 288.895 275.422 288.895ZM285.151 289.501L284.615 288.041H281.939L281.407 289.501H280.635L282.904 283.5H283.642L285.927 289.501H285.151ZM282.174 287.397H284.38L283.283 284.399H283.267L282.174 287.397ZM292.08 283.5H292.819V289.501H292.084V284.902H292.072L290.117 288.292H289.618L287.663 284.902H287.651V289.501H286.917V283.5H287.655L289.857 287.381H289.882L292.08 283.5Z" fill="#92959E"/>
<path d="M158.217 289.501V284.556L157.058 285.426L156.712 284.898L158.341 283.702H158.926V289.501H158.217ZM161.393 289.501V284.556L160.234 285.426L159.887 284.898L161.516 283.702H162.102V289.501H161.393ZM163.863 285.801C163.772 285.801 163.689 285.781 163.612 285.739C163.537 285.695 163.478 285.638 163.434 285.566C163.393 285.492 163.372 285.411 163.372 285.323C163.372 285.188 163.419 285.074 163.513 284.981C163.609 284.887 163.726 284.84 163.863 284.84C163.998 284.84 164.112 284.887 164.205 284.981C164.302 285.074 164.35 285.188 164.35 285.323C164.35 285.455 164.302 285.568 164.205 285.661C164.112 285.755 163.998 285.801 163.863 285.801ZM163.863 289.051C163.726 289.051 163.609 289.005 163.513 288.911C163.419 288.818 163.372 288.705 163.372 288.573C163.372 288.438 163.419 288.324 163.513 288.231C163.609 288.137 163.726 288.09 163.863 288.09C163.998 288.09 164.112 288.137 164.205 288.231C164.302 288.324 164.35 288.438 164.35 288.573C164.35 288.705 164.302 288.818 164.205 288.911C164.112 289.005 163.998 289.051 163.863 289.051ZM167.987 286.49C168.295 286.614 168.537 286.802 168.713 287.055C168.889 287.308 168.977 287.605 168.977 287.946C168.977 288.259 168.895 288.54 168.73 288.787C168.568 289.032 168.343 289.222 168.058 289.356C167.774 289.488 167.455 289.554 167.101 289.554C166.622 289.554 166.208 289.449 165.859 289.237C165.513 289.025 165.265 288.746 165.117 288.4L165.731 288.119C165.803 288.279 165.898 288.415 166.016 288.527C166.134 288.64 166.281 288.728 166.457 288.791C166.636 288.855 166.837 288.886 167.059 288.886C167.279 288.886 167.48 288.844 167.662 288.758C167.843 288.673 167.987 288.551 168.095 288.391C168.202 288.229 168.256 288.045 168.256 287.839C168.256 287.698 168.228 287.567 168.173 287.443C168.121 287.319 168.044 287.209 167.942 287.113C167.84 287.017 167.707 286.941 167.542 286.886C167.377 286.831 167.19 286.804 166.981 286.804H166.499V286.185H167.064C167.242 286.185 167.4 286.16 167.538 286.111C167.675 286.061 167.784 285.994 167.864 285.909C167.946 285.821 168.008 285.723 168.049 285.616C168.091 285.506 168.111 285.388 168.111 285.261C168.111 284.981 168.007 284.752 167.798 284.576C167.591 284.4 167.334 284.312 167.026 284.312C166.529 284.312 166.149 284.502 165.888 284.882L165.315 284.568C165.469 284.288 165.694 284.065 165.991 283.9C166.288 283.732 166.637 283.648 167.039 283.648C167.372 283.648 167.671 283.708 167.938 283.826C168.207 283.941 168.422 284.116 168.581 284.35C168.744 284.581 168.825 284.853 168.825 285.166C168.825 285.455 168.75 285.715 168.602 285.946C168.456 286.177 168.251 286.355 167.987 286.482V286.49ZM172.042 289.554C171.725 289.554 171.434 289.49 171.167 289.361C170.903 289.229 170.674 289.04 170.478 288.796C170.286 288.548 170.135 288.237 170.025 287.863C169.918 287.49 169.864 287.07 169.864 286.606C169.864 286.177 169.913 285.781 170.012 285.418C170.111 285.055 170.252 284.743 170.433 284.482C170.615 284.22 170.843 284.017 171.118 283.871C171.395 283.723 171.703 283.648 172.042 283.648C172.358 283.648 172.648 283.714 172.912 283.846C173.179 283.976 173.408 284.164 173.601 284.411C173.796 284.656 173.947 284.967 174.054 285.344C174.164 285.717 174.219 286.138 174.219 286.606C174.219 287.034 174.17 287.429 174.071 287.789C173.975 288.149 173.834 288.46 173.65 288.721C173.469 288.983 173.24 289.187 172.965 289.336C172.69 289.482 172.383 289.554 172.042 289.554ZM172.046 288.895C172.351 288.895 172.614 288.8 172.833 288.61C173.053 288.42 173.22 288.155 173.333 287.814C173.445 287.47 173.502 287.067 173.502 286.606C173.502 285.88 173.368 285.316 173.102 284.915C172.835 284.51 172.483 284.308 172.046 284.308C171.587 284.308 171.228 284.515 170.969 284.927C170.711 285.339 170.582 285.899 170.582 286.606C170.582 287.323 170.715 287.884 170.982 288.288C171.251 288.692 171.606 288.895 172.046 288.895ZM181.775 289.501L181.239 288.041H178.562L178.03 289.501H177.259L179.527 283.5H180.265L182.55 289.501H181.775ZM178.797 287.397H181.004L179.907 284.399H179.89L178.797 287.397ZM188.704 283.5H189.442V289.501H188.708V284.902H188.695L186.741 288.292H186.242L184.287 284.902H184.274V289.501H183.54V283.5H184.278L186.481 287.381H186.505L188.704 283.5Z" fill="#92959E"/>
<path d="M364.299 289.554C363.983 289.554 363.692 289.49 363.425 289.361C363.161 289.229 362.932 289.04 362.736 288.796C362.544 288.548 362.393 288.237 362.283 287.863C362.175 287.49 362.122 287.07 362.122 286.606C362.122 286.177 362.171 285.781 362.27 285.418C362.369 285.055 362.51 284.743 362.691 284.482C362.872 284.22 363.101 284.017 363.376 283.871C363.653 283.723 363.961 283.648 364.299 283.648C364.616 283.648 364.906 283.714 365.17 283.846C365.436 283.976 365.666 284.164 365.858 284.411C366.054 284.656 366.205 284.967 366.312 285.344C366.422 285.717 366.477 286.138 366.477 286.606C366.477 287.034 366.428 287.429 366.329 287.789C366.232 288.149 366.092 288.46 365.908 288.721C365.726 288.983 365.498 289.187 365.223 289.336C364.948 289.482 364.64 289.554 364.299 289.554ZM364.304 288.895C364.609 288.895 364.871 288.8 365.091 288.61C365.311 288.42 365.478 288.155 365.59 287.814C365.703 287.47 365.759 287.067 365.759 286.606C365.759 285.88 365.626 285.316 365.359 284.915C365.093 284.51 364.741 284.308 364.304 284.308C363.844 284.308 363.486 284.515 363.227 284.927C362.969 285.339 362.839 285.899 362.839 286.606C362.839 287.323 362.973 287.884 363.24 288.288C363.509 288.692 363.864 288.895 364.304 288.895ZM368.58 289.501V284.556L367.422 285.426L367.075 284.898L368.704 283.702H369.29V289.501H368.58ZM371.051 285.801C370.96 285.801 370.876 285.781 370.799 285.739C370.725 285.695 370.666 285.638 370.622 285.566C370.581 285.492 370.56 285.411 370.56 285.323C370.56 285.188 370.607 285.074 370.7 284.981C370.797 284.887 370.913 284.84 371.051 284.84C371.186 284.84 371.3 284.887 371.393 284.981C371.489 285.074 371.538 285.188 371.538 285.323C371.538 285.455 371.489 285.568 371.393 285.661C371.3 285.755 371.186 285.801 371.051 285.801ZM371.051 289.051C370.913 289.051 370.797 289.005 370.7 288.911C370.607 288.818 370.56 288.705 370.56 288.573C370.56 288.438 370.607 288.324 370.7 288.231C370.797 288.137 370.913 288.09 371.051 288.09C371.186 288.09 371.3 288.137 371.393 288.231C371.489 288.324 371.538 288.438 371.538 288.573C371.538 288.705 371.489 288.818 371.393 288.911C371.3 289.005 371.186 289.051 371.051 289.051ZM375.175 286.49C375.483 286.614 375.725 286.802 375.901 287.055C376.077 287.308 376.165 287.605 376.165 287.946C376.165 288.259 376.083 288.54 375.918 288.787C375.755 289.032 375.531 289.222 375.245 289.356C374.962 289.488 374.643 289.554 374.289 289.554C373.81 289.554 373.396 289.449 373.047 289.237C372.701 289.025 372.453 288.746 372.305 288.4L372.919 288.119C372.991 288.279 373.086 288.415 373.204 288.527C373.322 288.64 373.469 288.728 373.645 288.791C373.824 288.855 374.025 288.886 374.247 288.886C374.467 288.886 374.668 288.844 374.849 288.758C375.031 288.673 375.175 288.551 375.282 288.391C375.39 288.229 375.443 288.045 375.443 287.839C375.443 287.698 375.416 287.567 375.361 287.443C375.309 287.319 375.232 287.209 375.13 287.113C375.028 287.017 374.895 286.941 374.73 286.886C374.565 286.831 374.378 286.804 374.169 286.804H373.686V286.185H374.251C374.43 286.185 374.588 286.16 374.726 286.111C374.863 286.061 374.972 285.994 375.051 285.909C375.134 285.821 375.196 285.723 375.237 285.616C375.278 285.506 375.299 285.388 375.299 285.261C375.299 284.981 375.194 284.752 374.986 284.576C374.779 284.4 374.522 284.312 374.214 284.312C373.717 284.312 373.337 284.502 373.076 284.882L372.503 284.568C372.657 284.288 372.882 284.065 373.179 283.9C373.476 283.732 373.825 283.648 374.227 283.648C374.559 283.648 374.859 283.708 375.126 283.826C375.395 283.941 375.61 284.116 375.769 284.35C375.931 284.581 376.012 284.853 376.012 285.166C376.012 285.455 375.938 285.715 375.79 285.946C375.644 286.177 375.439 286.355 375.175 286.482V286.49ZM379.229 289.554C378.913 289.554 378.622 289.49 378.355 289.361C378.091 289.229 377.862 289.04 377.666 288.796C377.474 288.548 377.323 288.237 377.213 287.863C377.105 287.49 377.052 287.07 377.052 286.606C377.052 286.177 377.101 285.781 377.2 285.418C377.299 285.055 377.439 284.743 377.621 284.482C377.802 284.22 378.031 284.017 378.306 283.871C378.583 283.723 378.891 283.648 379.229 283.648C379.546 283.648 379.836 283.714 380.1 283.846C380.366 283.976 380.596 284.164 380.788 284.411C380.984 284.656 381.135 284.967 381.242 285.344C381.352 285.717 381.407 286.138 381.407 286.606C381.407 287.034 381.358 287.429 381.259 287.789C381.162 288.149 381.022 288.46 380.838 288.721C380.656 288.983 380.428 289.187 380.153 289.336C379.878 289.482 379.57 289.554 379.229 289.554ZM379.234 288.895C379.539 288.895 379.801 288.8 380.021 288.61C380.241 288.42 380.408 288.155 380.52 287.814C380.633 287.47 380.689 287.067 380.689 286.606C380.689 285.88 380.556 285.316 380.289 284.915C380.023 284.51 379.671 284.308 379.234 284.308C378.774 284.308 378.416 284.515 378.157 284.927C377.899 285.339 377.769 285.899 377.769 286.606C377.769 287.323 377.903 287.884 378.169 288.288C378.439 288.692 378.794 288.895 379.234 288.895ZM384.97 289.501V283.5H387.07C387.411 283.5 387.71 283.547 387.969 283.64C388.227 283.734 388.433 283.866 388.587 284.036C388.744 284.204 388.861 284.399 388.938 284.622C389.015 284.842 389.053 285.088 389.053 285.36C389.053 285.671 389.003 285.946 388.901 286.185C388.799 286.421 388.653 286.615 388.464 286.766C388.277 286.915 388.055 287.026 387.8 287.1C387.547 287.175 387.261 287.212 386.942 287.212H385.705V289.501H384.97ZM385.705 286.535H386.876C387.121 286.535 387.335 286.507 387.519 286.449C387.703 286.388 387.851 286.304 387.961 286.197C388.07 286.087 388.153 285.962 388.208 285.822C388.263 285.679 388.29 285.519 388.29 285.344C388.29 284.97 388.175 284.682 387.944 284.482C387.716 284.278 387.398 284.176 386.991 284.176H385.705V286.535ZM395.355 283.5H396.094V289.501H395.359V284.902H395.347L393.392 288.292H392.893L390.938 284.902H390.926V289.501H390.192V283.5H390.93L393.132 287.381H393.157L395.355 283.5Z" fill="#92959E"/>
<path d="M466.087 289.554C465.771 289.554 465.479 289.49 465.213 289.361C464.949 289.229 464.719 289.04 464.524 288.796C464.331 288.548 464.18 288.237 464.07 287.863C463.963 287.49 463.909 287.07 463.909 286.606C463.909 286.177 463.959 285.781 464.058 285.418C464.157 285.055 464.297 284.743 464.479 284.482C464.66 284.22 464.888 284.017 465.163 283.871C465.441 283.723 465.749 283.648 466.087 283.648C466.403 283.648 466.693 283.714 466.957 283.846C467.224 283.976 467.454 284.164 467.646 284.411C467.841 284.656 467.992 284.967 468.1 285.344C468.21 285.717 468.265 286.138 468.265 286.606C468.265 287.034 468.215 287.429 468.116 287.789C468.02 288.149 467.88 288.46 467.695 288.721C467.514 288.983 467.286 289.187 467.011 289.336C466.736 289.482 466.428 289.554 466.087 289.554ZM466.091 288.895C466.396 288.895 466.659 288.8 466.879 288.61C467.099 288.42 467.265 288.155 467.378 287.814C467.491 287.47 467.547 287.067 467.547 286.606C467.547 285.88 467.414 285.316 467.147 284.915C466.88 284.51 466.528 284.308 466.091 284.308C465.632 284.308 465.273 284.515 465.015 284.927C464.756 285.339 464.627 285.899 464.627 286.606C464.627 287.323 464.76 287.884 465.027 288.288C465.297 288.692 465.651 288.895 466.091 288.895ZM470.129 288.849H472.702V289.501H469.052L469.044 289.01L471.028 286.985C471.168 286.839 471.285 286.711 471.378 286.601C471.472 286.491 471.563 286.37 471.651 286.238C471.739 286.104 471.805 285.97 471.849 285.838C471.893 285.704 471.915 285.566 471.915 285.426C471.915 285.104 471.812 284.839 471.605 284.63C471.402 284.418 471.141 284.312 470.822 284.312C470.266 284.312 469.851 284.578 469.576 285.108L469.052 284.75C469.165 284.53 469.301 284.34 469.461 284.18C469.623 284.018 469.824 283.889 470.063 283.793C470.305 283.697 470.573 283.648 470.867 283.648C471.098 283.648 471.319 283.688 471.531 283.768C471.743 283.845 471.93 283.955 472.092 284.098C472.254 284.241 472.383 284.421 472.48 284.638C472.579 284.855 472.628 285.095 472.628 285.356C472.628 285.689 472.551 286.008 472.397 286.313C472.246 286.615 471.993 286.946 471.638 287.307L470.129 288.837V288.849ZM474.092 285.801C474.002 285.801 473.918 285.781 473.841 285.739C473.766 285.695 473.707 285.638 473.663 285.566C473.622 285.492 473.601 285.411 473.601 285.323C473.601 285.188 473.648 285.074 473.742 284.981C473.838 284.887 473.955 284.84 474.092 284.84C474.227 284.84 474.341 284.887 474.435 284.981C474.531 285.074 474.579 285.188 474.579 285.323C474.579 285.455 474.531 285.568 474.435 285.661C474.341 285.755 474.227 285.801 474.092 285.801ZM474.092 289.051C473.955 289.051 473.838 289.005 473.742 288.911C473.648 288.818 473.601 288.705 473.601 288.573C473.601 288.438 473.648 288.324 473.742 288.231C473.838 288.137 473.955 288.09 474.092 288.09C474.227 288.09 474.341 288.137 474.435 288.231C474.531 288.324 474.579 288.438 474.579 288.573C474.579 288.705 474.531 288.818 474.435 288.911C474.341 289.005 474.227 289.051 474.092 289.051ZM478.217 286.49C478.524 286.614 478.766 286.802 478.942 287.055C479.118 287.308 479.206 287.605 479.206 287.946C479.206 288.259 479.124 288.54 478.959 288.787C478.797 289.032 478.573 289.222 478.287 289.356C478.003 289.488 477.685 289.554 477.33 289.554C476.851 289.554 476.438 289.449 476.088 289.237C475.742 289.025 475.495 288.746 475.346 288.4L475.961 288.119C476.032 288.279 476.127 288.415 476.245 288.527C476.363 288.64 476.51 288.728 476.686 288.791C476.865 288.855 477.066 288.886 477.289 288.886C477.509 288.886 477.709 288.844 477.891 288.758C478.072 288.673 478.217 288.551 478.324 288.391C478.431 288.229 478.485 288.045 478.485 287.839C478.485 287.698 478.457 287.567 478.402 287.443C478.35 287.319 478.273 287.209 478.171 287.113C478.069 287.017 477.936 286.941 477.771 286.886C477.606 286.831 477.419 286.804 477.21 286.804H476.728V286.185H477.293C477.471 286.185 477.63 286.16 477.767 286.111C477.904 286.061 478.013 285.994 478.093 285.909C478.175 285.821 478.237 285.723 478.278 285.616C478.32 285.506 478.34 285.388 478.34 285.261C478.34 284.981 478.236 284.752 478.027 284.576C477.821 284.4 477.564 284.312 477.256 284.312C476.758 284.312 476.378 284.502 476.117 284.882L475.544 284.568C475.698 284.288 475.923 284.065 476.22 283.9C476.517 283.732 476.867 283.648 477.268 283.648C477.601 283.648 477.9 283.708 478.167 283.826C478.437 283.941 478.651 284.116 478.81 284.35C478.973 284.581 479.054 284.853 479.054 285.166C479.054 285.455 478.98 285.715 478.831 285.946C478.685 286.177 478.481 286.355 478.217 286.482V286.49ZM482.271 289.554C481.955 289.554 481.663 289.49 481.396 289.361C481.132 289.229 480.903 289.04 480.708 288.796C480.515 288.548 480.364 288.237 480.254 287.863C480.147 287.49 480.093 287.07 480.093 286.606C480.093 286.177 480.143 285.781 480.242 285.418C480.341 285.055 480.481 284.743 480.662 284.482C480.844 284.22 481.072 284.017 481.347 283.871C481.625 283.723 481.933 283.648 482.271 283.648C482.587 283.648 482.877 283.714 483.141 283.846C483.408 283.976 483.637 284.164 483.83 284.411C484.025 284.656 484.176 284.967 484.283 285.344C484.393 285.717 484.448 286.138 484.448 286.606C484.448 287.034 484.399 287.429 484.3 287.789C484.204 288.149 484.063 288.46 483.879 288.721C483.698 288.983 483.47 289.187 483.195 289.336C482.92 289.482 482.612 289.554 482.271 289.554ZM482.275 288.895C482.58 288.895 482.843 288.8 483.063 288.61C483.283 288.42 483.449 288.155 483.562 287.814C483.674 287.47 483.731 287.067 483.731 286.606C483.731 285.88 483.597 285.316 483.331 284.915C483.064 284.51 482.712 284.308 482.275 284.308C481.816 284.308 481.457 284.515 481.198 284.927C480.94 285.339 480.811 285.899 480.811 286.606C480.811 287.323 480.944 287.884 481.211 288.288C481.48 288.692 481.835 288.895 482.275 288.895ZM488.012 289.501V283.5H490.111C490.452 283.5 490.752 283.547 491.01 283.64C491.269 283.734 491.475 283.866 491.629 284.036C491.785 284.204 491.902 284.399 491.979 284.622C492.056 284.842 492.095 285.088 492.095 285.36C492.095 285.671 492.044 285.946 491.942 286.185C491.84 286.421 491.695 286.615 491.505 286.766C491.318 286.915 491.097 287.026 490.841 287.1C490.588 287.175 490.302 287.212 489.983 287.212H488.746V289.501H488.012ZM488.746 286.535H489.917C490.162 286.535 490.376 286.507 490.561 286.449C490.745 286.388 490.892 286.304 491.002 286.197C491.112 286.087 491.194 285.962 491.249 285.822C491.304 285.679 491.332 285.519 491.332 285.344C491.332 284.97 491.216 284.682 490.985 284.482C490.757 284.278 490.44 284.176 490.033 284.176H488.746V286.535ZM498.397 283.5H499.135V289.501H498.401V284.902H498.388L496.434 288.292H495.934L493.98 284.902H493.967V289.501H493.233V283.5H493.971L496.174 287.381H496.198L498.397 283.5Z" fill="#92959E"/>
<path d="M571.597 289.554C571.281 289.554 570.99 289.49 570.723 289.361C570.459 289.229 570.229 289.04 570.034 288.796C569.842 288.548 569.69 288.237 569.581 287.863C569.473 287.49 569.42 287.07 569.42 286.606C569.42 286.177 569.469 285.781 569.568 285.418C569.667 285.055 569.807 284.743 569.989 284.482C570.17 284.22 570.398 284.017 570.673 283.871C570.951 283.723 571.259 283.648 571.597 283.648C571.913 283.648 572.204 283.714 572.468 283.846C572.734 283.976 572.964 284.164 573.156 284.411C573.351 284.656 573.503 284.967 573.61 285.344C573.72 285.717 573.775 286.138 573.775 286.606C573.775 287.034 573.725 287.429 573.626 287.789C573.53 288.149 573.39 288.46 573.206 288.721C573.024 288.983 572.796 289.187 572.521 289.336C572.246 289.482 571.938 289.554 571.597 289.554ZM571.601 288.895C571.907 288.895 572.169 288.8 572.389 288.61C572.609 288.42 572.775 288.155 572.888 287.814C573.001 287.47 573.057 287.067 573.057 286.606C573.057 285.88 572.924 285.316 572.657 284.915C572.391 284.51 572.039 284.308 571.601 284.308C571.142 284.308 570.783 284.515 570.525 284.927C570.267 285.339 570.137 285.899 570.137 286.606C570.137 287.323 570.271 287.884 570.537 288.288C570.807 288.692 571.161 288.895 571.601 288.895ZM577.293 286.49C577.601 286.614 577.843 286.802 578.019 287.055C578.195 287.308 578.283 287.605 578.283 287.946C578.283 288.259 578.2 288.54 578.035 288.787C577.873 289.032 577.649 289.222 577.363 289.356C577.08 289.488 576.761 289.554 576.406 289.554C575.928 289.554 575.514 289.449 575.165 289.237C574.818 289.025 574.571 288.746 574.422 288.4L575.037 288.119C575.108 288.279 575.203 288.415 575.322 288.527C575.44 288.64 575.587 288.728 575.763 288.791C575.942 288.855 576.142 288.886 576.365 288.886C576.585 288.886 576.786 288.844 576.967 288.758C577.149 288.673 577.293 288.551 577.4 288.391C577.507 288.229 577.561 288.045 577.561 287.839C577.561 287.698 577.534 287.567 577.479 287.443C577.426 287.319 577.349 287.209 577.248 287.113C577.146 287.017 577.012 286.941 576.848 286.886C576.683 286.831 576.496 286.804 576.287 286.804H575.804V286.185H576.369C576.548 286.185 576.706 286.16 576.843 286.111C576.981 286.061 577.089 285.994 577.169 285.909C577.252 285.821 577.314 285.723 577.355 285.616C577.396 285.506 577.417 285.388 577.417 285.261C577.417 284.981 577.312 284.752 577.103 284.576C576.897 284.4 576.64 284.312 576.332 284.312C575.834 284.312 575.455 284.502 575.194 284.882L574.62 284.568C574.774 284.288 575 284.065 575.297 283.9C575.594 283.732 575.943 283.648 576.344 283.648C576.677 283.648 576.977 283.708 577.243 283.826C577.513 283.941 577.727 284.116 577.887 284.35C578.049 284.581 578.13 284.853 578.13 285.166C578.13 285.455 578.056 285.715 577.907 285.946C577.762 286.177 577.557 286.355 577.293 286.482V286.49ZM579.71 285.801C579.619 285.801 579.535 285.781 579.458 285.739C579.384 285.695 579.325 285.638 579.281 285.566C579.24 285.492 579.219 285.411 579.219 285.323C579.219 285.188 579.266 285.074 579.359 284.981C579.455 284.887 579.572 284.84 579.71 284.84C579.844 284.84 579.959 284.887 580.052 284.981C580.148 285.074 580.196 285.188 580.196 285.323C580.196 285.455 580.148 285.568 580.052 285.661C579.959 285.755 579.844 285.801 579.71 285.801ZM579.71 289.051C579.572 289.051 579.455 289.005 579.359 288.911C579.266 288.818 579.219 288.705 579.219 288.573C579.219 288.438 579.266 288.324 579.359 288.231C579.455 288.137 579.572 288.09 579.71 288.09C579.844 288.09 579.959 288.137 580.052 288.231C580.148 288.324 580.196 288.438 580.196 288.573C580.196 288.705 580.148 288.818 580.052 288.911C579.959 289.005 579.844 289.051 579.71 289.051ZM583.834 286.49C584.142 286.614 584.384 286.802 584.56 287.055C584.736 287.308 584.824 287.605 584.824 287.946C584.824 288.259 584.741 288.54 584.576 288.787C584.414 289.032 584.19 289.222 583.904 289.356C583.621 289.488 583.302 289.554 582.947 289.554C582.469 289.554 582.055 289.449 581.706 289.237C581.359 289.025 581.112 288.746 580.964 288.4L581.578 288.119C581.65 288.279 581.744 288.415 581.863 288.527C581.981 288.64 582.128 288.728 582.304 288.791C582.483 288.855 582.683 288.886 582.906 288.886C583.126 288.886 583.327 288.844 583.508 288.758C583.69 288.673 583.834 288.551 583.941 288.391C584.049 288.229 584.102 288.045 584.102 287.839C584.102 287.698 584.075 287.567 584.02 287.443C583.967 287.319 583.89 287.209 583.789 287.113C583.687 287.017 583.554 286.941 583.389 286.886C583.224 286.831 583.037 286.804 582.828 286.804H582.345V286.185H582.91C583.089 286.185 583.247 286.16 583.385 286.111C583.522 286.061 583.631 285.994 583.71 285.909C583.793 285.821 583.855 285.723 583.896 285.616C583.937 285.506 583.958 285.388 583.958 285.261C583.958 284.981 583.853 284.752 583.644 284.576C583.438 284.4 583.181 284.312 582.873 284.312C582.375 284.312 581.996 284.502 581.735 284.882L581.162 284.568C581.315 284.288 581.541 284.065 581.838 283.9C582.135 283.732 582.484 283.648 582.885 283.648C583.218 283.648 583.518 283.708 583.785 283.826C584.054 283.941 584.268 284.116 584.428 284.35C584.59 284.581 584.671 284.853 584.671 285.166C584.671 285.455 584.597 285.715 584.449 285.946C584.303 286.177 584.098 286.355 583.834 286.482V286.49ZM587.888 289.554C587.572 289.554 587.281 289.49 587.014 289.361C586.75 289.229 586.52 289.04 586.325 288.796C586.133 288.548 585.981 288.237 585.871 287.863C585.764 287.49 585.711 287.07 585.711 286.606C585.711 286.177 585.76 285.781 585.859 285.418C585.958 285.055 586.098 284.743 586.28 284.482C586.461 284.22 586.689 284.017 586.964 283.871C587.242 283.723 587.55 283.648 587.888 283.648C588.204 283.648 588.494 283.714 588.758 283.846C589.025 283.976 589.255 284.164 589.447 284.411C589.642 284.656 589.794 284.967 589.901 285.344C590.011 285.717 590.066 286.138 590.066 286.606C590.066 287.034 590.016 287.429 589.917 287.789C589.821 288.149 589.681 288.46 589.497 288.721C589.315 288.983 589.087 289.187 588.812 289.336C588.537 289.482 588.229 289.554 587.888 289.554ZM587.892 288.895C588.198 288.895 588.46 288.8 588.68 288.61C588.9 288.42 589.066 288.155 589.179 287.814C589.292 287.47 589.348 287.067 589.348 286.606C589.348 285.88 589.215 285.316 588.948 284.915C588.681 284.51 588.33 284.308 587.892 284.308C587.433 284.308 587.074 284.515 586.816 284.927C586.557 285.339 586.428 285.899 586.428 286.606C586.428 287.323 586.562 287.884 586.828 288.288C587.098 288.692 587.452 288.895 587.892 288.895ZM593.629 289.501V283.5H595.728C596.069 283.5 596.369 283.547 596.628 283.64C596.886 283.734 597.092 283.866 597.246 284.036C597.403 284.204 597.52 284.399 597.597 284.622C597.674 284.842 597.712 285.088 597.712 285.36C597.712 285.671 597.661 285.946 597.56 286.185C597.458 286.421 597.312 286.615 597.123 286.766C596.936 286.915 596.714 287.026 596.458 287.1C596.206 287.175 595.92 287.212 595.601 287.212H594.363V289.501H593.629ZM594.363 286.535H595.535C595.779 286.535 595.994 286.507 596.178 286.449C596.362 286.388 596.509 286.304 596.619 286.197C596.729 286.087 596.812 285.962 596.867 285.822C596.922 285.679 596.949 285.519 596.949 285.344C596.949 284.97 596.834 284.682 596.603 284.482C596.375 284.278 596.057 284.176 595.65 284.176H594.363V286.535ZM604.014 283.5H604.752V289.501H604.018V284.902H604.006L602.051 288.292H601.552L599.597 284.902H599.585V289.501H598.851V283.5H599.589L601.791 287.381H601.816L604.014 283.5Z" fill="#92959E"/>
<path d="M444.007 271.591V94.5653" stroke="#ECECEE" stroke-width="0.703878"/>
<circle cx="444.007" cy="94.9172" r="5.27909" fill="white" stroke="#7549FF" stroke-width="2.11163"/>
<circle cx="444.007" cy="271.591" r="3.16745" fill="white" stroke="#7549FF" stroke-width="2.11163"/>
<g filter="url(#filter0_d_101_181)">
<rect x="353.558" y="97.3808" width="81.6499" height="57.718" rx="8.44654" fill="white"/>
</g>
<path d="M376.647 117.235L376.107 115.636H373.032L372.491 117.235H370.836L373.798 109.239H375.318L378.303 117.235H376.647ZM373.494 114.284H375.645L374.575 111.142H374.552L373.494 114.284ZM379.364 117.235V109.239H382.326C383.257 109.239 383.951 109.483 384.409 109.971C384.875 110.452 385.108 111.094 385.108 111.897C385.108 112.753 384.845 113.402 384.319 113.845C383.801 114.281 383.088 114.498 382.18 114.498H380.929V117.235H379.364ZM380.929 113.091H381.977C382.465 113.091 382.833 112.982 383.081 112.764C383.336 112.546 383.463 112.246 383.463 111.863C383.463 111.488 383.34 111.191 383.092 110.973C382.844 110.756 382.495 110.647 382.044 110.647H380.929V113.091ZM386.448 117.235V109.239H388.036V117.235H386.448ZM396.554 117.314C395.405 117.314 394.437 116.954 393.648 116.233C392.868 115.512 392.477 114.521 392.477 113.26C392.477 112.073 392.837 111.09 393.558 110.309C394.287 109.528 395.285 109.138 396.554 109.138C397.14 109.138 397.71 109.265 398.266 109.521C398.829 109.776 399.321 110.159 399.741 110.669L398.581 111.66C398.003 110.985 397.327 110.647 396.554 110.647C395.848 110.647 395.266 110.887 394.808 111.368C394.358 111.841 394.133 112.471 394.133 113.26C394.133 114.003 394.358 114.615 394.808 115.095C395.259 115.576 395.841 115.816 396.554 115.816C397.357 115.816 398.033 115.478 398.581 114.802L399.741 115.805C398.93 116.811 397.868 117.314 396.554 117.314ZM404.727 111.739H406.191V117.235H404.794V116.571H404.76C404.377 117.074 403.829 117.325 403.116 117.325C402.35 117.325 401.72 117.066 401.224 116.548C400.736 116.023 400.492 115.339 400.492 114.498C400.492 113.673 400.736 112.993 401.224 112.46C401.72 111.919 402.339 111.649 403.082 111.649C403.766 111.649 404.302 111.886 404.693 112.359H404.727V111.739ZM403.386 116.008C403.777 116.008 404.107 115.869 404.377 115.591C404.648 115.313 404.783 114.953 404.783 114.51C404.783 114.067 404.652 113.699 404.389 113.406C404.126 113.113 403.796 112.967 403.398 112.967C402.992 112.967 402.654 113.109 402.384 113.395C402.114 113.673 401.979 114.044 401.979 114.51C401.979 114.953 402.11 115.313 402.373 115.591C402.636 115.869 402.973 116.008 403.386 116.008ZM407.705 117.235V108.946H409.18V117.235H407.705ZM410.806 117.235V108.946H412.281V117.235H410.806ZM415.619 117.325C414.756 117.325 414.013 117.059 413.389 116.526L414.11 115.501C414.561 115.929 415.067 116.143 415.631 116.143C415.841 116.143 416.006 116.101 416.126 116.019C416.246 115.936 416.306 115.827 416.306 115.692C416.306 115.572 416.235 115.471 416.092 115.388C415.95 115.306 415.687 115.204 415.304 115.084C414.771 114.904 414.354 114.682 414.054 114.42C413.761 114.149 413.615 113.774 413.615 113.293C413.615 112.805 413.802 112.411 414.178 112.111C414.553 111.803 415.026 111.649 415.597 111.649C416.348 111.649 417.016 111.878 417.601 112.336L416.892 113.417C416.479 113.027 416.04 112.832 415.574 112.832C415.439 112.832 415.315 112.869 415.203 112.944C415.09 113.012 415.034 113.113 415.034 113.248C415.034 113.353 415.098 113.451 415.225 113.541C415.36 113.624 415.574 113.721 415.867 113.834C416.167 113.947 416.389 114.033 416.532 114.093C416.674 114.146 416.843 114.228 417.038 114.341C417.234 114.446 417.369 114.551 417.444 114.656C417.526 114.754 417.598 114.885 417.658 115.05C417.725 115.215 417.759 115.403 417.759 115.613C417.759 116.124 417.575 116.537 417.207 116.852C416.847 117.168 416.318 117.325 415.619 117.325Z" fill="#92959E"/>
<path d="M379.399 130.983H385.379V131.801L381.55 140.813L380.368 140.579L384.066 132.069H379.399V130.983ZM389.847 134.509C390.131 134.509 390.406 134.541 390.672 134.605C390.937 134.665 391.185 134.754 391.414 134.874C391.648 134.993 391.859 135.144 392.046 135.327C392.239 135.506 392.402 135.708 392.534 135.932C392.672 136.157 392.777 136.411 392.851 136.695C392.929 136.979 392.968 137.279 392.968 137.596C392.968 138.205 392.819 138.75 392.521 139.232C392.223 139.713 391.817 140.086 391.304 140.352C390.795 140.613 390.229 140.744 389.606 140.744C388.937 140.744 388.319 140.602 387.75 140.318C387.182 140.029 386.731 139.633 386.396 139.128L387.276 138.455C387.501 138.817 387.808 139.106 388.197 139.321C388.591 139.532 389.031 139.637 389.517 139.637C389.929 139.637 390.307 139.55 390.651 139.376C390.995 139.197 391.267 138.95 391.469 138.634C391.671 138.317 391.771 137.967 391.771 137.582C391.771 137.266 391.71 136.977 391.586 136.716C391.462 136.455 391.297 136.241 391.091 136.076C390.885 135.907 390.646 135.779 390.376 135.692C390.11 135.6 389.828 135.554 389.531 135.554C388.811 135.554 388.243 135.73 387.826 136.083L387.139 135.87L387.42 130.983H392.528V132.069H388.534L388.383 134.784C388.919 134.601 389.407 134.509 389.847 134.509ZM398.46 140.648V138.943H393.964V138.097L398.638 130.983H399.642V137.871H401.051V138.943H399.642V140.648H398.46ZM395.394 137.898H398.48V133.134L395.394 137.898ZM406.035 134.55C406.617 134.55 407.134 134.672 407.588 134.915C408.042 135.153 408.399 135.506 408.66 135.973C408.922 136.441 409.052 136.988 409.052 137.616C409.052 138.203 408.908 138.734 408.619 139.211C408.33 139.688 407.93 140.061 407.416 140.331C406.908 140.602 406.339 140.737 405.712 140.737C405.235 140.737 404.786 140.648 404.364 140.469C403.947 140.286 403.585 140.033 403.278 139.713C402.976 139.387 402.737 138.991 402.563 138.524C402.389 138.056 402.302 137.547 402.302 136.998C402.302 136.319 402.389 135.671 402.563 135.052C402.742 134.429 402.987 133.875 403.299 133.389C403.61 132.903 403.972 132.47 404.385 132.09C404.802 131.705 405.249 131.393 405.725 131.155C406.206 130.912 406.704 130.745 407.217 130.653L407.574 131.663C407.212 131.755 406.866 131.874 406.536 132.021C406.211 132.163 405.895 132.344 405.588 132.564C405.285 132.779 405.01 133.024 404.763 133.299C404.516 133.574 404.296 133.891 404.103 134.248C403.911 134.605 403.762 134.99 403.656 135.403L403.67 135.41C403.872 135.231 404.096 135.077 404.344 134.949C404.596 134.821 404.864 134.722 405.148 134.654C405.437 134.585 405.732 134.55 406.035 134.55ZM405.698 139.623C406.33 139.623 406.85 139.429 407.258 139.039C407.666 138.645 407.87 138.168 407.87 137.609C407.87 137.018 407.68 136.544 407.299 136.186C406.919 135.824 406.41 135.643 405.773 135.643C405.269 135.643 404.816 135.772 404.412 136.028C404.014 136.28 403.695 136.597 403.457 136.977V137.073C403.457 137.834 403.665 138.45 404.082 138.922C404.504 139.39 405.043 139.623 405.698 139.623Z" fill="#15192C"/>
<path d="M616.338 40.0801H611.903" stroke="#92959E" stroke-width="1.05582" stroke-linecap="round" stroke-linejoin="round"/>
<path d="M618.316 33.2578H622.751" stroke="#92959E" stroke-width="1.05582" stroke-linecap="round" stroke-linejoin="round"/>
<path fill-rule="evenodd" clip-rule="evenodd" d="M615.209 33.2197C615.209 32.3077 614.464 31.5682 613.545 31.5682C612.627 31.5682 611.882 32.3077 611.882 33.2197C611.882 34.1316 612.627 34.8711 613.545 34.8711C614.464 34.8711 615.209 34.1316 615.209 33.2197Z" stroke="#92959E" stroke-width="1.05582" stroke-linecap="round" stroke-linejoin="round"/>
<path fill-rule="evenodd" clip-rule="evenodd" d="M623.144 40.0526C623.144 39.1406 622.4 38.4011 621.481 38.4011C620.562 38.4011 619.817 39.1406 619.817 40.0526C619.817 40.9645 620.562 41.704 621.481 41.704C622.4 41.704 623.144 40.9645 623.144 40.0526Z" stroke="#92959E" stroke-width="1.05582" stroke-linecap="round" stroke-linejoin="round"/>
<defs>
<filter id="filter0_d_101_181" x="333.85" y="90.342" width="121.067" height="97.1352" filterUnits="userSpaceOnUse" color-interpolation-filters="sRGB">
<feFlood flood-opacity="0" result="BackgroundImageFix"/>
<feColorMatrix in="SourceAlpha" type="matrix" values="0 0 0 0 0 0 0 0 0 0 0 0 0 0 0 0 0 0 127 0" result="hardAlpha"/>
<feMorphology radius="2.81551" operator="erode" in="SourceAlpha" result="effect1_dropShadow_101_181"/>
<feOffset dy="12.6698"/>
<feGaussianBlur stdDeviation="11.2621"/>
<feColorMatrix type="matrix" values="0 0 0 0 0.815686 0 0 0 0 0.823529 0 0 0 0 0.854902 0 0 0 0.15 0"/>
<feBlend mode="normal" in2="BackgroundImageFix" result="effect1_dropShadow_101_181"/>
<feBlend mode="normal" in="SourceGraphic" in2="effect1_dropShadow_101_181" result="shape"/>
</filter>
<linearGradient id="paint0_linear_101_181" x1="337.278" y1="38.5304" x2="337.278" y2="285.959" gradientUnits="userSpaceOnUse">
<stop stop-color="#F3F0FF"/>
<stop offset="1" stop-color="#F1EDFF" stop-opacity="0"/>
</linearGradient>
</defs>
</svg>
