<svg width="18" height="18" viewBox="0 0 18 18" fill="none" xmlns="http://www.w3.org/2000/svg">
<path fill-rule="evenodd" clip-rule="evenodd" d="M8.90329 2.33547C9.0157 2.23458 9.16439 2.18169 9.31658 2.18848C12.5339 2.28479 15.2227 4.62036 15.71 7.74194C15.7131 7.76058 15.7131 7.77959 15.71 7.79823C15.7205 7.94592 15.6706 8.09164 15.5713 8.20314C15.472 8.31463 15.3315 8.38272 15.181 8.39235L9.77553 8.74882C9.59677 8.76467 9.41949 8.70585 9.28723 8.5868C9.15497 8.46776 9.08 8.29952 9.08073 8.12343L8.71739 2.81387V2.72631C8.72401 2.57698 8.79089 2.43637 8.90329 2.33547ZM8.53253 10.1372L13.2177 9.83699L13.2495 9.8495C13.4507 9.85279 13.6423 9.93437 13.7822 10.0763C13.9221 10.2182 13.9987 10.4088 13.9953 10.6062C13.8107 13.2965 11.8383 15.5443 9.15414 16.1234C6.46997 16.7025 3.71837 15.4739 2.40043 13.1078C2.0129 12.4263 1.76801 11.6757 1.68013 10.9002C1.64605 10.6703 1.63113 10.4382 1.63551 10.206C1.6444 7.34526 3.68113 4.87605 6.53099 4.27102C6.87599 4.20645 7.22188 4.3787 7.3724 4.69003C7.40987 4.74653 7.43986 4.80747 7.46164 4.8714C7.51507 5.69605 7.57048 6.51289 7.62566 7.32629C7.66924 7.96867 7.71267 8.6089 7.75486 9.24913C7.75268 9.39995 7.77639 9.55005 7.82498 9.69315C7.93937 9.97472 8.22403 10.1534 8.53253 10.1372Z" fill="#FD2254"/>
</svg>
