<svg width="173" height="174" viewBox="0 0 173 174" fill="none" xmlns="http://www.w3.org/2000/svg">
<path d="M32.1507 26.567C24.0971 33.798 17.5685 42.5645 12.9478 52.3521C8.32704 62.1398 5.70724 72.7515 5.24202 83.5651C4.7768 94.3786 6.47554 105.176 10.2386 115.325C14.0016 125.473 19.7532 134.768 27.1561 142.664L37.1178 133.324C30.9584 126.754 26.1728 119.021 23.0418 110.577C19.9108 102.133 18.4974 93.1493 18.8845 84.152C19.2716 75.1547 21.4513 66.3253 25.2959 58.1817C29.1406 50.038 34.5726 42.744 41.2735 36.7275L32.1507 26.567Z" fill="#D0D2DA"/>
<path d="M172.69 87.0594C172.69 70.4015 167.865 54.1002 158.798 40.1261C149.73 26.1521 136.81 15.1036 121.597 8.31628C106.385 1.529 89.5319 -0.706473 73.076 1.88011C56.6202 4.46668 41.2658 11.7646 28.8691 22.8915L45.6464 41.5833C54.432 33.6976 65.3137 28.5255 76.9761 26.6924C88.6385 24.8593 100.582 26.4436 111.363 31.2537C122.144 36.0639 131.301 43.8941 137.727 53.7975C144.153 63.701 147.573 75.2538 147.573 87.0594H172.69Z" fill="#FD2254"/>
<path d="M26.0981 143.593C37.4353 155.699 52.1502 164.117 68.3322 167.753C84.5141 171.389 101.416 170.076 116.842 163.985C132.268 157.893 145.507 147.304 154.838 133.592C164.17 119.881 169.163 103.681 169.17 87.0954L154.079 87.0888C154.073 100.648 149.991 113.892 142.362 125.101C134.733 136.311 123.91 144.968 111.299 149.948C98.6875 154.928 84.8701 156.001 71.6409 153.028C58.4117 150.056 46.3819 143.174 37.1135 133.277L26.0981 143.593Z" fill="#00B7FE"/>
</svg>
