<svg width="18" height="18" viewBox="0 0 18 18" fill="none" xmlns="http://www.w3.org/2000/svg">
<path fill-rule="evenodd" clip-rule="evenodd" d="M7.16366 8.65801C6.85571 8.65801 6.61222 8.89733 6.61222 9.19999C6.61222 9.49562 6.85571 9.74198 7.16366 9.74198H11.4606V13.1065C11.4606 14.831 10.0354 16.2388 8.2737 16.2388H4.78602C3.03144 16.2388 1.60629 14.8381 1.60629 13.1136V5.29347C1.60629 3.56193 3.0386 2.16121 4.79318 2.16121H8.28802C10.0354 2.16121 11.4606 3.56193 11.4606 5.28643V8.65801H7.16366ZM14.0158 6.76471L16.0712 8.813C16.1767 8.91858 16.233 9.05232 16.233 9.20013C16.233 9.34091 16.1767 9.48168 16.0712 9.58023L14.0158 11.6285C13.9103 11.7341 13.7695 11.7904 13.6357 11.7904C13.495 11.7904 13.3542 11.7341 13.2486 11.6285C13.0374 11.4173 13.0374 11.0724 13.2486 10.8613L14.3748 9.74212H11.4608V8.65815H14.3748L13.2486 7.53898C13.0374 7.32782 13.0374 6.98291 13.2486 6.77175C13.4598 6.55355 13.8047 6.55355 14.0158 6.76471Z" fill="#D0D2DA"/>
</svg>
