<svg width="18" height="18" viewBox="0 0 18 18" fill="none" xmlns="http://www.w3.org/2000/svg">
<path fill-rule="evenodd" clip-rule="evenodd" d="M6.43083 12.3167H10.222C10.5077 12.3167 10.7447 12.0774 10.7447 11.7888C10.7447 11.5002 10.5077 11.2679 10.222 11.2679H6.43083C6.1451 11.2679 5.90815 11.5002 5.90815 11.7888C5.90815 12.0774 6.1451 12.3167 6.43083 12.3167ZM8.78638 7.74851H6.43083C6.1451 7.74851 5.90815 7.98783 5.90815 8.27642C5.90815 8.56501 6.1451 8.79729 6.43083 8.79729H8.78638C9.07212 8.79729 9.30907 8.56501 9.30907 8.27642C9.30907 7.98783 9.07212 7.74851 8.78638 7.74851ZM13.7598 7.13304C13.9237 7.13115 14.102 7.12909 14.2641 7.12909C14.4383 7.12909 14.5777 7.26987 14.5777 7.44584V13.105C14.5777 14.8506 13.1769 16.2654 11.4486 16.2654H5.90118C4.08922 16.2654 2.61177 14.7803 2.61177 12.9502V5.36236C2.61177 3.61674 4.01953 2.18787 5.75483 2.18787H9.47633C9.65752 2.18787 9.79691 2.33568 9.79691 2.51165V4.77814C9.79691 6.06624 10.8492 7.12205 12.1246 7.12909C12.4225 7.12909 12.6851 7.13132 12.9149 7.13327C13.0937 7.13478 13.2527 7.13613 13.393 7.13613C13.4922 7.13613 13.6208 7.13465 13.7598 7.13304ZM13.952 6.10567C13.3792 6.10778 12.7039 6.10567 12.2181 6.10074C11.4473 6.10074 10.8124 5.45951 10.8124 4.68102V2.8256C10.8124 2.52223 11.1769 2.3716 11.3853 2.5905C11.7625 2.98665 12.2809 3.53121 12.7969 4.07326C13.3115 4.61376 13.8236 5.15177 14.1911 5.53764C14.3946 5.75092 14.2454 6.10497 13.952 6.10567Z" fill="#FF6A00"/>
</svg>
