<svg width="18" height="18" viewBox="0 0 18 18" fill="none" xmlns="http://www.w3.org/2000/svg">
<path fill-rule="evenodd" clip-rule="evenodd" d="M14.5593 9.83258C14.811 9.96631 15.0053 10.1775 15.1419 10.3886C15.4081 10.825 15.3865 11.36 15.1275 11.8316L14.624 12.6762C14.3579 13.1267 13.8615 13.4083 13.3508 13.4083C13.099 13.4083 12.8185 13.3379 12.5883 13.1971C12.4013 13.0775 12.1855 13.0352 11.9553 13.0352C11.2431 13.0352 10.6461 13.6194 10.6245 14.3163C10.6245 15.1257 9.96272 15.7592 9.13549 15.7592H8.1572C7.32277 15.7592 6.66098 15.1257 6.66098 14.3163C6.64659 13.6194 6.04955 13.0352 5.33741 13.0352C5.10003 13.0352 4.88423 13.0775 4.70439 13.1971C4.47421 13.3379 4.18647 13.4083 3.9419 13.4083C3.42398 13.4083 2.92764 13.1267 2.66149 12.6762L2.16515 11.8316C1.89899 11.3741 1.8846 10.825 2.15076 10.3886C2.26585 10.1775 2.48165 9.96631 2.72623 9.83258C2.92764 9.73403 3.05712 9.57214 3.17941 9.38209C3.53907 8.77676 3.32327 7.98138 2.71184 7.6224C1.9997 7.22119 1.76951 6.32726 2.17953 5.63042L2.66149 4.79984C3.0787 4.10301 3.97067 3.85665 4.69001 4.2649C5.31583 4.60276 6.12867 4.37752 6.49553 3.77922C6.61063 3.58214 6.67537 3.37097 6.66098 3.15981C6.64659 2.8853 6.72572 2.62486 6.86239 2.4137C7.12855 1.97729 7.6105 1.69574 8.13562 1.68166H9.14988C9.68218 1.68166 10.1641 1.97729 10.4303 2.4137C10.5598 2.62486 10.6461 2.8853 10.6245 3.15981C10.6101 3.37097 10.6749 3.58214 10.79 3.77922C11.1568 4.37752 11.9697 4.60276 12.6027 4.2649C13.3148 3.85665 14.214 4.10301 14.624 4.79984L15.106 5.63042C15.5232 6.32726 15.293 7.22119 14.5737 7.6224C13.9622 7.98138 13.7464 8.77676 14.1133 9.38209C14.2284 9.57214 14.3579 9.73403 14.5593 9.83258ZM6.61061 8.72748C6.61061 9.83257 7.52417 10.7124 8.65352 10.7124C9.78287 10.7124 10.6748 9.83257 10.6748 8.72748C10.6748 7.6224 9.78287 6.73551 8.65352 6.73551C7.52417 6.73551 6.61061 7.6224 6.61061 8.72748Z" fill="#D0D2DA"/>
</svg>
