<svg width="18" height="18" viewBox="0 0 18 18" fill="none" xmlns="http://www.w3.org/2000/svg">
<path fill-rule="evenodd" clip-rule="evenodd" d="M5.53591 3.08735C5.65288 3.17179 5.84152 3.36575 5.84152 3.36575C6.57385 4.05212 7.67688 5.75928 8.0311 6.6254C8.03851 6.6254 8.24857 7.14039 8.25681 7.38535V7.41795C8.25681 7.79333 8.04675 8.14446 7.70901 8.3242C7.56977 8.39831 7.23112 8.46722 7.06773 8.50047C7.01361 8.51149 6.97873 8.51859 6.97668 8.52067C6.49395 8.59424 5.75338 8.64272 4.94032 8.64272C4.0869 8.64272 3.31421 8.59424 2.83889 8.50395C2.83065 8.50395 2.39653 8.41449 2.25155 8.35681C2.04231 8.26735 1.8652 8.10349 1.75234 7.8995C1.67161 7.73648 1.63207 7.56426 1.63207 7.38535C1.63949 7.19724 1.76058 6.84611 1.8166 6.70733C2.17082 5.79189 3.32986 4.04376 4.0383 3.37411C4.11189 3.29942 4.19564 3.22118 4.25391 3.16674C4.28501 3.13769 4.30885 3.11542 4.32003 3.10407C4.49714 2.96529 4.71461 2.89172 4.94856 2.89172C5.15697 2.89172 5.36621 2.95693 5.53591 3.08735ZM13.055 7.93275C13.055 8.30144 12.761 8.59991 12.3977 8.59991C12.0344 8.59991 11.7403 8.30144 11.7403 7.93275L11.5591 4.70981C11.5591 4.23996 11.9347 3.85956 12.3977 3.85956C12.8606 3.85956 13.2355 4.23996 13.2355 4.70981L13.055 7.93275ZM15.0902 10.0963C15.2994 10.1866 15.4765 10.3497 15.5894 10.5537C15.6701 10.7167 15.7096 10.8889 15.7096 11.0687C15.7022 11.2559 15.5811 11.6079 15.5243 11.7467C15.1709 12.6613 14.011 14.4095 13.3034 15.08C13.2311 15.1529 13.1489 15.2295 13.0908 15.2838L13.0907 15.2838L13.0907 15.2838C13.0582 15.3142 13.0332 15.3375 13.0217 15.3492C12.8438 15.488 12.6271 15.5615 12.394 15.5615C12.1839 15.5615 11.9747 15.4963 11.8058 15.3651C11.6888 15.2815 11.5002 15.0875 11.5002 15.0875C10.767 14.4019 9.66483 12.6939 9.31061 11.8278C9.30238 11.8278 9.09314 11.3136 9.0849 11.0687V11.036C9.0849 10.6598 9.29414 10.3087 9.63271 10.1289C9.77166 10.0556 10.1092 9.98651 10.273 9.95299C10.3277 9.94179 10.363 9.93457 10.365 9.93247C10.8478 9.8589 11.5883 9.81041 12.4014 9.81041C13.2548 9.81041 14.0275 9.8589 14.5028 9.9492C14.5102 9.9492 14.9452 10.0387 15.0902 10.0963ZM4.94419 9.85346C4.58091 9.85346 4.28683 10.1519 4.28683 10.5206L4.1056 13.7435C4.1056 14.2133 4.48124 14.5937 4.94419 14.5937C5.40715 14.5937 5.78197 14.2133 5.78197 13.7435L5.60156 10.5206C5.60156 10.1519 5.30748 9.85346 4.94419 9.85346Z" fill="#551FFF"/>
</svg>
