<svg width="18" height="17" viewBox="0 0 18 17" fill="none" xmlns="http://www.w3.org/2000/svg">
<path fill-rule="evenodd" clip-rule="evenodd" d="M13.2979 5.89269H16.2761C16.2761 3.50147 14.8433 2.10455 12.4157 2.10455H6.05887C3.63127 2.10455 2.19849 3.50147 2.19849 5.86219V11.0167C2.19849 13.3775 3.63127 14.7744 6.05887 14.7744H12.4157C14.8433 14.7744 16.2761 13.3775 16.2761 11.0167V10.7971H13.2979C11.9157 10.7971 10.7952 9.7047 10.7952 8.35711C10.7952 7.00952 11.9157 5.91709 13.2979 5.91709V5.89269ZM13.2979 6.94189H15.7505C16.0408 6.94189 16.2761 7.17131 16.2761 7.4543V9.23551C16.2727 9.51713 16.0393 9.74463 15.7505 9.74792H13.3542C12.6544 9.7571 12.0426 9.29 11.8839 8.62551C11.8044 8.21301 11.916 7.78736 12.1887 7.46263C12.4614 7.13789 12.8674 6.94729 13.2979 6.94189ZM13.4042 8.81461H13.6357C13.9329 8.81461 14.1738 8.57974 14.1738 8.29001C14.1738 8.00027 13.9329 7.7654 13.6357 7.7654H13.4042C13.2621 7.76377 13.1252 7.81768 13.0241 7.91509C12.923 8.01251 12.8661 8.14533 12.8661 8.28391C12.8661 8.57464 13.106 8.81127 13.4042 8.81461ZM5.53331 5.89269H9.50632C9.80349 5.89269 10.0444 5.65782 10.0444 5.36808C10.0444 5.07835 9.80349 4.84348 9.50632 4.84348H5.53331C5.23857 4.84346 4.99866 5.07464 4.99524 5.36198C4.99522 5.65272 5.23513 5.88935 5.53331 5.89269Z" fill="#D0D2DA"/>
</svg>
